<svg xmlns="http://www.w3.org/2000/svg" width="1770" height="2781" viewBox="0 0 1770 2781">
<defs><filter id="shadow" x="-20%" y="-20%" width="140%" height="140%"><feDropShadow dx="0" dy="1" stdDeviation="1" flood-color="#9ca3af" flood-opacity="0.25"/></filter></defs>
<rect x="0" y="0" width="1770" height="2781" fill="#ffffff"/>
<text x="885.0" y="38" text-anchor="middle" font-family="Arial, Helvetica, sans-serif" font-size="16" font-weight="700" fill="#111827">UC09 - Escalar time</text>
<rect x="110.0" y="92.0" width="120.0" height="48.0" rx="9" ry="9" fill="#f3f4f6" stroke="#374151" stroke-width="1.35" filter="url(#shadow)"/>
<text x="170.0" y="121" text-anchor="middle" font-family="Arial, Helvetica, sans-serif" font-size="13" font-weight="700" fill="#111827">Usuario</text>
<line x1="170.0" y1="150.0" x2="170.0" y2="2759.0" stroke="#cbd5e1" stroke-width="1.1" stroke-dasharray="6,6"/>
<rect x="295.0" y="92.0" width="128.7" height="48.0" rx="9" ry="9" fill="#e0f2fe" stroke="#374151" stroke-width="1.35" filter="url(#shadow)"/>
<text x="359.4" y="121" text-anchor="middle" font-family="Arial, Helvetica, sans-serif" font-size="13" font-weight="700" fill="#111827">MarketScreen</text>
<line x1="359.4" y1="150.0" x2="359.4" y2="2759.0" stroke="#cbd5e1" stroke-width="1.1" stroke-dasharray="6,6"/>
<rect x="480.0" y="92.0" width="169.0" height="48.0" rx="9" ry="9" fill="#e0f2fe" stroke="#374151" stroke-width="1.35" filter="url(#shadow)"/>
<text x="564.5" y="121" text-anchor="middle" font-family="Arial, Helvetica, sans-serif" font-size="13" font-weight="700" fill="#111827">LineupScoreScreen</text>
<line x1="564.5" y1="150.0" x2="564.5" y2="2759.0" stroke="#cbd5e1" stroke-width="1.1" stroke-dasharray="6,6"/>
<rect x="679.0" y="92.0" width="161.0" height="48.0" rx="9" ry="9" fill="#e0f2fe" stroke="#374151" stroke-width="1.35" filter="url(#shadow)"/>
<text x="759.5" y="121" text-anchor="middle" font-family="Arial, Helvetica, sans-serif" font-size="13" font-weight="700" fill="#111827">MarketController</text>
<line x1="759.5" y1="150.0" x2="759.5" y2="2759.0" stroke="#cbd5e1" stroke-width="1.1" stroke-dasharray="6,6"/>
<rect x="870.0" y="92.0" width="136.8" height="48.0" rx="9" ry="9" fill="#e0f2fe" stroke="#374151" stroke-width="1.35" filter="url(#shadow)"/>
<text x="938.4" y="121" text-anchor="middle" font-family="Arial, Helvetica, sans-serif" font-size="13" font-weight="700" fill="#111827">AppController</text>
<line x1="938.4" y1="150.0" x2="938.4" y2="2759.0" stroke="#cbd5e1" stroke-width="1.1" stroke-dasharray="6,6"/>
<rect x="1055.0" y="92.0" width="136.8" height="48.0" rx="9" ry="9" fill="#e0f2fe" stroke="#374151" stroke-width="1.35" filter="url(#shadow)"/>
<text x="1123.4" y="121" text-anchor="middle" font-family="Arial, Helvetica, sans-serif" font-size="13" font-weight="700" fill="#111827">MarketService</text>
<line x1="1123.4" y1="150.0" x2="1123.4" y2="2759.0" stroke="#cbd5e1" stroke-width="1.1" stroke-dasharray="6,6"/>
<rect x="1240.0" y="92.0" width="193.2" height="48.0" rx="9" ry="9" fill="#e0f2fe" stroke="#374151" stroke-width="1.35" filter="url(#shadow)"/>
<text x="1336.6" y="121" text-anchor="middle" font-family="Arial, Helvetica, sans-serif" font-size="13" font-weight="700" fill="#111827">VenderJogadorCommand</text>
<line x1="1336.6" y1="150.0" x2="1336.6" y2="2759.0" stroke="#cbd5e1" stroke-width="1.1" stroke-dasharray="6,6"/>
<rect x="1463.2" y="92.0" width="217.4" height="48.0" rx="9" ry="9" fill="#e0f2fe" stroke="#374151" stroke-width="1.35" filter="url(#shadow)"/>
<text x="1571.9" y="121" text-anchor="middle" font-family="Arial, Helvetica, sans-serif" font-size="13" font-weight="700" fill="#111827">Callback refresh_market</text>
<line x1="1571.9" y1="150.0" x2="1571.9" y2="2759.0" stroke="#cbd5e1" stroke-width="1.1" stroke-dasharray="6,6"/>
<line x1="170.0" y1="167.4" x2="359.4" y2="167.4" stroke="#111827" stroke-width="1.6"/>
<polygon points="359.4,167.4 350.4,163.4 350.4,171.4" fill="#111827"/>
<rect x="154.9" y="150.4" width="219.6" height="23.0" rx="4" fill="#ffffff" opacity="0.92"/>
<text x="264.7" y="162.4" text-anchor="middle" font-family="Arial, Helvetica, sans-serif" font-size="13" fill="#111827">Compra jogadores no mercado</text>
<line x1="359.4" y1="218.4" x2="759.5" y2="218.4" stroke="#111827" stroke-width="1.6"/>
<polygon points="759.5,218.4 750.5,214.4 750.5,222.4" fill="#111827"/>
<rect x="464.7" y="201.4" width="189.4" height="23.0" rx="4" fill="#ffffff" opacity="0.92"/>
<text x="559.4" y="213.4" text-anchor="middle" font-family="Arial, Helvetica, sans-serif" font-size="13" fill="#111827">listar_elenco(username)</text>
<path d="M359.4,279.6 h 34 v 34.0 h -24.0" fill="none" stroke="#111827" stroke-width="1.6"/>
<polygon points="369.4,313.6 378.4,309.6 378.4,317.6" fill="#111827"/>
<rect x="397.4" y="280.6" width="219.6" height="40.0" rx="4" fill="#ffffff" opacity="0.92"/>
<text x="405.4" y="292.6" text-anchor="start" font-family="Arial, Helvetica, sans-serif" font-size="13" fill="#111827">context.jogadores_escalados</text>
<text x="405.4" y="309.6" text-anchor="start" font-family="Arial, Helvetica, sans-serif" font-size="13" fill="#111827">= elenco</text>
<line x1="359.4" y1="369.0" x2="564.5" y2="369.0" stroke="#111827" stroke-width="1.6"/>
<polygon points="564.5,369.0 555.5,365.0 555.5,373.0" fill="#111827"/>
<rect x="393.6" y="352.0" width="136.6" height="23.0" rx="4" fill="#ffffff" opacity="0.92"/>
<text x="461.9" y="364.0" text-anchor="middle" font-family="Arial, Helvetica, sans-serif" font-size="13" fill="#111827">refresh_lineup()</text>
<path d="M564.5,430.2 h 34 v 34.0 h -24.0" fill="none" stroke="#111827" stroke-width="1.6"/>
<polygon points="574.5,464.2 583.5,460.2 583.5,468.2" fill="#111827"/>
<rect x="602.5" y="431.2" width="219.6" height="40.0" rx="4" fill="#ffffff" opacity="0.92"/>
<text x="610.5" y="443.2" text-anchor="start" font-family="Arial, Helvetica, sans-serif" font-size="13" fill="#111827">preencher tabela com</text>
<text x="610.5" y="460.2" text-anchor="start" font-family="Arial, Helvetica, sans-serif" font-size="13" fill="#111827">context.jogadores_escalados</text>
<line x1="170.0" y1="519.6" x2="359.4" y2="519.6" stroke="#111827" stroke-width="1.6"/>
<polygon points="359.4,519.6 350.4,515.6 350.4,523.6" fill="#111827"/>
<rect x="154.9" y="502.6" width="219.6" height="23.0" rx="4" fill="#ffffff" opacity="0.92"/>
<text x="264.7" y="514.6" text-anchor="middle" font-family="Arial, Helvetica, sans-serif" font-size="13" fill="#111827">Clica em &quot;Confirmar elenco&quot;</text>
<path d="M359.4,591.0 h 34 v 51.0 h -24.0" fill="none" stroke="#111827" stroke-width="1.6"/>
<polygon points="369.4,642.0 378.4,638.0 378.4,646.0" fill="#111827"/>
<rect x="397.4" y="592.0" width="257.3" height="57.0" rx="4" fill="#ffffff" opacity="0.92"/>
<text x="405.4" y="604.0" text-anchor="start" font-family="Arial, Helvetica, sans-serif" font-size="13" fill="#111827">validar</text>
<text x="405.4" y="621.0" text-anchor="start" font-family="Arial, Helvetica, sans-serif" font-size="13" fill="#111827">len(context.jogadores_escalados)</text>
<text x="405.4" y="638.0" text-anchor="start" font-family="Arial, Helvetica, sans-serif" font-size="13" fill="#111827">== 11</text>
<rect x="304.4" y="680.0" width="315.1" height="329.0" rx="10" ry="10" fill="none" stroke="#9ca3af" stroke-width="1.35"/>
<text x="322.4" y="699.0" text-anchor="middle" font-family="Arial, Helvetica, sans-serif" font-size="13" font-weight="700" fill="#3730a3">alt</text>
<text x="344.4" y="699.0" text-anchor="start" font-family="Arial, Helvetica, sans-serif" font-size="13" font-weight="700" fill="#111827">Elenco incompleto</text>
<path d="M359.4,755.8 h 34 v 51.0 h -24.0" fill="none" stroke="#111827" stroke-width="1.6"/>
<polygon points="369.4,806.8 378.4,802.8 378.4,810.8" fill="#111827"/>
<rect x="397.4" y="756.8" width="189.4" height="57.0" rx="4" fill="#ffffff" opacity="0.92"/>
<text x="405.4" y="768.8" text-anchor="start" font-family="Arial, Helvetica, sans-serif" font-size="13" fill="#111827">show_error(&quot;Compre</text>
<text x="405.4" y="785.8" text-anchor="start" font-family="Arial, Helvetica, sans-serif" font-size="13" fill="#111827">exatamente 11 jogadores</text>
<text x="405.4" y="802.8" text-anchor="start" font-family="Arial, Helvetica, sans-serif" font-size="13" fill="#111827">antes de confirmar.&quot;)</text>
<line x1="304.4" y1="842.8" x2="619.5" y2="842.8" stroke="#d1d5db" stroke-width="1.2" stroke-dasharray="5,4"/>
<text x="322.4" y="860.8" text-anchor="middle" font-family="Arial, Helvetica, sans-serif" font-size="13" font-weight="700" fill="#c2410c">else</text>
<text x="344.4" y="860.8" text-anchor="start" font-family="Arial, Helvetica, sans-serif" font-size="13" font-weight="700" fill="#111827">Elenco completo</text>
<line x1="359.4" y1="880.2" x2="564.5" y2="880.2" stroke="#111827" stroke-width="1.6"/>
<polygon points="564.5,880.2 555.5,876.2 555.5,884.2" fill="#111827"/>
<rect x="404.9" y="863.2" width="114.0" height="23.0" rx="4" fill="#ffffff" opacity="0.92"/>
<text x="461.9" y="875.2" text-anchor="middle" font-family="Arial, Helvetica, sans-serif" font-size="13" fill="#111827">show_lineup()</text>
<line x1="359.4" y1="951.6" x2="564.5" y2="951.6" stroke="#111827" stroke-width="1.6"/>
<polygon points="564.5,951.6 555.5,947.6 555.5,955.6" fill="#111827"/>
<rect x="333.3" y="918.6" width="257.3" height="57.0" rx="4" fill="#ffffff" opacity="0.92"/>
<text x="461.9" y="930.6" text-anchor="middle" font-family="Arial, Helvetica, sans-serif" font-size="13" fill="#111827">refresh_lineup(&quot;11/11 jogadores.</text>
<text x="461.9" y="947.6" text-anchor="middle" font-family="Arial, Helvetica, sans-serif" font-size="13" fill="#111827">Escolha o capitao e calcule a</text>
<text x="461.9" y="964.6" text-anchor="middle" font-family="Arial, Helvetica, sans-serif" font-size="13" fill="#111827">pontuacao.&quot;)</text>
<line x1="170.0" y1="1042.4" x2="564.5" y2="1042.4" stroke="#111827" stroke-width="1.6"/>
<polygon points="564.5,1042.4 555.5,1038.4 555.5,1046.4" fill="#111827"/>
<rect x="246.2" y="1025.4" width="242.2" height="23.0" rx="4" fill="#ffffff" opacity="0.92"/>
<text x="367.3" y="1037.4" text-anchor="middle" font-family="Arial, Helvetica, sans-serif" font-size="13" fill="#111827">Seleciona um jogador na tabela</text>
<line x1="170.0" y1="1093.4" x2="564.5" y2="1093.4" stroke="#111827" stroke-width="1.6"/>
<polygon points="564.5,1093.4 555.5,1089.4 555.5,1097.4" fill="#111827"/>
<rect x="261.2" y="1076.4" width="212.0" height="23.0" rx="4" fill="#ffffff" opacity="0.92"/>
<text x="367.3" y="1088.4" text-anchor="middle" font-family="Arial, Helvetica, sans-serif" font-size="13" fill="#111827">Clica em &quot;Definir capitao&quot;</text>
<path d="M564.5,1144.4 h 34 v 17.0 h -24.0" fill="none" stroke="#111827" stroke-width="1.6"/>
<polygon points="574.5,1161.4 583.5,1157.4 583.5,1165.4" fill="#111827"/>
<rect x="602.5" y="1145.4" width="219.6" height="23.0" rx="4" fill="#ffffff" opacity="0.92"/>
<text x="610.5" y="1157.4" text-anchor="start" font-family="Arial, Helvetica, sans-serif" font-size="13" fill="#111827">selected_rows(lineup_table)</text>
<rect x="509.5" y="1199.4" width="110.0" height="237.0" rx="10" ry="10" fill="none" stroke="#9ca3af" stroke-width="1.35"/>
<text x="527.5" y="1218.4" text-anchor="middle" font-family="Arial, Helvetica, sans-serif" font-size="13" font-weight="700" fill="#3730a3">alt</text>
<text x="549.5" y="1218.4" text-anchor="start" font-family="Arial, Helvetica, sans-serif" font-size="13" font-weight="700" fill="#111827">Nenhuma linha selecionada</text>
<line x1="509.5" y1="1235.4" x2="619.5" y2="1235.4" stroke="#d1d5db" stroke-width="1.2" stroke-dasharray="5,4"/>
<text x="527.5" y="1253.4" text-anchor="middle" font-family="Arial, Helvetica, sans-serif" font-size="13" font-weight="700" fill="#c2410c">else</text>
<text x="549.5" y="1253.4" text-anchor="start" font-family="Arial, Helvetica, sans-serif" font-size="13" font-weight="700" fill="#111827">Linha selecionada</text>
<path d="M564.5,1283.0 h 34 v 34.0 h -24.0" fill="none" stroke="#111827" stroke-width="1.6"/>
<polygon points="574.5,1317.0 583.5,1313.0 583.5,1321.0" fill="#111827"/>
<rect x="602.5" y="1284.0" width="272.4" height="40.0" rx="4" fill="#ffffff" opacity="0.92"/>
<text x="610.5" y="1296.0" text-anchor="start" font-family="Arial, Helvetica, sans-serif" font-size="13" fill="#111827">context.capitao =</text>
<text x="610.5" y="1313.0" text-anchor="start" font-family="Arial, Helvetica, sans-serif" font-size="13" fill="#111827">context.jogadores_escalados[linha]</text>
<path d="M564.5,1372.4 h 34 v 17.0 h -24.0" fill="none" stroke="#111827" stroke-width="1.6"/>
<polygon points="574.5,1389.4 583.5,1385.4 583.5,1393.4" fill="#111827"/>
<rect x="602.5" y="1373.4" width="98.9" height="23.0" rx="4" fill="#ffffff" opacity="0.92"/>
<text x="610.5" y="1385.4" text-anchor="start" font-family="Arial, Helvetica, sans-serif" font-size="13" fill="#111827">preencher()</text>
<line x1="170.0" y1="1469.8" x2="564.5" y2="1469.8" stroke="#111827" stroke-width="1.6"/>
<polygon points="564.5,1469.8 555.5,1465.8 555.5,1473.8" fill="#111827"/>
<rect x="246.2" y="1452.8" width="242.2" height="23.0" rx="4" fill="#ffffff" opacity="0.92"/>
<text x="367.3" y="1464.8" text-anchor="middle" font-family="Arial, Helvetica, sans-serif" font-size="13" fill="#111827">Seleciona um jogador na tabela</text>
<line x1="170.0" y1="1520.8" x2="564.5" y2="1520.8" stroke="#111827" stroke-width="1.6"/>
<polygon points="564.5,1520.8 555.5,1516.8 555.5,1524.8" fill="#111827"/>
<rect x="291.4" y="1503.8" width="151.7" height="23.0" rx="4" fill="#ffffff" opacity="0.92"/>
<text x="367.3" y="1515.8" text-anchor="middle" font-family="Arial, Helvetica, sans-serif" font-size="13" fill="#111827">Clica em &quot;Remover&quot;</text>
<path d="M564.5,1571.8 h 34 v 17.0 h -24.0" fill="none" stroke="#111827" stroke-width="1.6"/>
<polygon points="574.5,1588.8 583.5,1584.8 583.5,1592.8" fill="#111827"/>
<rect x="602.5" y="1572.8" width="219.6" height="23.0" rx="4" fill="#ffffff" opacity="0.92"/>
<text x="610.5" y="1584.8" text-anchor="start" font-family="Arial, Helvetica, sans-serif" font-size="13" fill="#111827">selected_rows(lineup_table)</text>
<rect x="509.5" y="1626.8" width="1117.4" height="1216.0" rx="10" ry="10" fill="none" stroke="#9ca3af" stroke-width="1.35"/>
<text x="527.5" y="1645.8" text-anchor="middle" font-family="Arial, Helvetica, sans-serif" font-size="13" font-weight="700" fill="#3730a3">alt</text>
<text x="549.5" y="1645.8" text-anchor="start" font-family="Arial, Helvetica, sans-serif" font-size="13" font-weight="700" fill="#111827">Nenhuma linha selecionada</text>
<line x1="509.5" y1="1662.8" x2="1626.9" y2="1662.8" stroke="#d1d5db" stroke-width="1.2" stroke-dasharray="5,4"/>
<text x="527.5" y="1680.8" text-anchor="middle" font-family="Arial, Helvetica, sans-serif" font-size="13" font-weight="700" fill="#c2410c">else</text>
<text x="549.5" y="1680.8" text-anchor="start" font-family="Arial, Helvetica, sans-serif" font-size="13" font-weight="700" fill="#111827">Linha selecionada</text>
<path d="M564.5,1710.4 h 34 v 34.0 h -24.0" fill="none" stroke="#111827" stroke-width="1.6"/>
<polygon points="574.5,1744.4 583.5,1740.4 583.5,1748.4" fill="#111827"/>
<rect x="602.5" y="1711.4" width="272.4" height="40.0" rx="4" fill="#ffffff" opacity="0.92"/>
<text x="610.5" y="1723.4" text-anchor="start" font-family="Arial, Helvetica, sans-serif" font-size="13" fill="#111827">jogador =</text>
<text x="610.5" y="1740.4" text-anchor="start" font-family="Arial, Helvetica, sans-serif" font-size="13" fill="#111827">context.jogadores_escalados[linha]</text>
<line x1="564.5" y1="1799.8" x2="759.5" y2="1799.8" stroke="#111827" stroke-width="1.6"/>
<polygon points="759.5,1799.8 750.5,1795.8 750.5,1803.8" fill="#111827"/>
<rect x="559.8" y="1782.8" width="204.5" height="23.0" rx="4" fill="#ffffff" opacity="0.92"/>
<text x="662.0" y="1794.8" text-anchor="middle" font-family="Arial, Helvetica, sans-serif" font-size="13" fill="#111827">vender(username, jogador)</text>
<line x1="759.5" y1="1861.0" x2="938.4" y2="1861.0" stroke="#111827" stroke-width="1.6"/>
<polygon points="938.4,1861.0 929.4,1857.0 929.4,1865.0" fill="#111827"/>
<rect x="750.5" y="1836.0" width="197.0" height="40.0" rx="4" fill="#ffffff" opacity="0.92"/>
<text x="848.9" y="1848.0" text-anchor="middle" font-family="Arial, Helvetica, sans-serif" font-size="13" fill="#111827">vender_jogador(username,</text>
<text x="848.9" y="1865.0" text-anchor="middle" font-family="Arial, Helvetica, sans-serif" font-size="13" fill="#111827">jogador)</text>
<path d="M938.4,1918.8 h 34 v 17.0 h -24.0" fill="none" stroke="#111827" stroke-width="1.6"/>
<polygon points="948.4,1935.8 957.4,1931.8 957.4,1939.8" fill="#111827"/>
<rect x="976.4" y="1919.8" width="287.4" height="23.0" rx="4" fill="#ffffff" opacity="0.92"/>
<text x="984.4" y="1931.8" text-anchor="start" font-family="Arial, Helvetica, sans-serif" font-size="13" fill="#111827">_buscar_usuario_autorizado(username)</text>
<line x1="938.4" y1="1991.2" x2="1123.4" y2="1991.2" stroke="#111827" stroke-width="1.6"/>
<polygon points="1123.4,1991.2 1114.4,1987.2 1114.4,1995.2" fill="#111827"/>
<rect x="943.7" y="1974.2" width="174.3" height="23.0" rx="4" fill="#ffffff" opacity="0.92"/>
<text x="1030.9" y="1986.2" text-anchor="middle" font-family="Arial, Helvetica, sans-serif" font-size="13" fill="#111827">vender(user, jogador)</text>
<line x1="1123.4" y1="2042.2" x2="1336.6" y2="2042.2" stroke="#111827" stroke-width="1.6"/>
<polygon points="1336.6,2042.2 1327.6,2038.2 1327.6,2046.2" fill="#111827"/>
<rect x="1146.6" y="2025.2" width="166.8" height="23.0" rx="4" fill="#ffffff" opacity="0.92"/>
<text x="1230.0" y="2037.2" text-anchor="middle" font-family="Arial, Helvetica, sans-serif" font-size="13" fill="#111827">criar(user, jogador)</text>
<path d="M1123.4,2093.2 h 34 v 17.0 h -24.0" fill="none" stroke="#111827" stroke-width="1.6"/>
<polygon points="1133.4,2110.2 1142.4,2106.2 1142.4,2114.2" fill="#111827"/>
<rect x="1161.4" y="2094.2" width="204.5" height="23.0" rx="4" fill="#ffffff" opacity="0.92"/>
<text x="1169.4" y="2106.2" text-anchor="start" font-family="Arial, Helvetica, sans-serif" font-size="13" fill="#111827">executar_comando(command)</text>
<path d="M1123.4,2165.6 h 34 v 17.0 h -24.0" fill="none" stroke="#111827" stroke-width="1.6"/>
<polygon points="1133.4,2182.6 1142.4,2178.6 1142.4,2186.6" fill="#111827"/>
<rect x="1161.4" y="2166.6" width="204.5" height="23.0" rx="4" fill="#ffffff" opacity="0.92"/>
<text x="1169.4" y="2178.6" text-anchor="start" font-family="Arial, Helvetica, sans-serif" font-size="13" fill="#111827">_validar_mercado_aberto()</text>
<rect x="509.5" y="2220.6" width="1117.4" height="640.0" rx="10" ry="10" fill="none" stroke="#9ca3af" stroke-width="1.35"/>
<text x="527.5" y="2239.6" text-anchor="middle" font-family="Arial, Helvetica, sans-serif" font-size="13" font-weight="700" fill="#3730a3">alt</text>
<text x="549.5" y="2239.6" text-anchor="start" font-family="Arial, Helvetica, sans-serif" font-size="13" font-weight="700" fill="#111827">Erro na venda</text>
<path d="M564.5,2276.0 h 34 v 17.0 h -24.0" fill="none" stroke="#111827" stroke-width="1.6"/>
<polygon points="574.5,2293.0 583.5,2289.0 583.5,2297.0" fill="#111827"/>
<rect x="602.5" y="2277.0" width="166.8" height="23.0" rx="4" fill="#ffffff" opacity="0.92"/>
<text x="610.5" y="2289.0" text-anchor="start" font-family="Arial, Helvetica, sans-serif" font-size="13" fill="#111827">show_error(mensagem)</text>
<line x1="509.5" y1="2329.0" x2="1626.9" y2="2329.0" stroke="#d1d5db" stroke-width="1.2" stroke-dasharray="5,4"/>
<text x="527.5" y="2347.0" text-anchor="middle" font-family="Arial, Helvetica, sans-serif" font-size="13" font-weight="700" fill="#c2410c">else</text>
<text x="549.5" y="2347.0" text-anchor="start" font-family="Arial, Helvetica, sans-serif" font-size="13" font-weight="700" fill="#111827">Mercado aberto</text>
<line x1="1123.4" y1="2366.4" x2="1336.6" y2="2366.4" stroke="#111827" stroke-width="1.6"/>
<polygon points="1336.6,2366.4 1327.6,2362.4 1327.6,2370.4" fill="#111827"/>
<rect x="1157.9" y="2349.4" width="144.2" height="23.0" rx="4" fill="#ffffff" opacity="0.92"/>
<text x="1230.0" y="2361.4" text-anchor="middle" font-family="Arial, Helvetica, sans-serif" font-size="13" fill="#111827">executar(service)</text>
<line x1="1336.6" y1="2427.6" x2="1123.4" y2="2427.6" stroke="#111827" stroke-width="1.6"/>
<polygon points="1123.4,2427.6 1132.4,2423.6 1132.4,2431.6" fill="#111827"/>
<rect x="1127.7" y="2402.6" width="204.5" height="40.0" rx="4" fill="#ffffff" opacity="0.92"/>
<text x="1230.0" y="2414.6" text-anchor="middle" font-family="Arial, Helvetica, sans-serif" font-size="13" fill="#111827">_buscar_no_elenco(elenco,</text>
<text x="1230.0" y="2431.6" text-anchor="middle" font-family="Arial, Helvetica, sans-serif" font-size="13" fill="#111827">jogador)</text>
<rect x="509.5" y="2468.0" width="1117.4" height="346.0" rx="10" ry="10" fill="none" stroke="#9ca3af" stroke-width="1.35"/>
<text x="527.5" y="2487.0" text-anchor="middle" font-family="Arial, Helvetica, sans-serif" font-size="13" font-weight="700" fill="#3730a3">alt</text>
<text x="549.5" y="2487.0" text-anchor="start" font-family="Arial, Helvetica, sans-serif" font-size="13" font-weight="700" fill="#111827">Jogador nao pertence ao elenco</text>
<path d="M564.5,2523.4 h 34 v 17.0 h -24.0" fill="none" stroke="#111827" stroke-width="1.6"/>
<polygon points="574.5,2540.4 583.5,2536.4 583.5,2544.4" fill="#111827"/>
<rect x="602.5" y="2524.4" width="166.8" height="23.0" rx="4" fill="#ffffff" opacity="0.92"/>
<text x="610.5" y="2536.4" text-anchor="start" font-family="Arial, Helvetica, sans-serif" font-size="13" fill="#111827">show_error(mensagem)</text>
<line x1="509.5" y1="2576.4" x2="1626.9" y2="2576.4" stroke="#d1d5db" stroke-width="1.2" stroke-dasharray="5,4"/>
<text x="527.5" y="2594.4" text-anchor="middle" font-family="Arial, Helvetica, sans-serif" font-size="13" font-weight="700" fill="#c2410c">else</text>
<text x="549.5" y="2594.4" text-anchor="start" font-family="Arial, Helvetica, sans-serif" font-size="13" font-weight="700" fill="#111827">Venda realizada</text>
<line x1="1336.6" y1="2613.8" x2="1123.4" y2="2613.8" stroke="#111827" stroke-width="1.6"/>
<polygon points="1123.4,2613.8 1132.4,2609.8 1132.4,2617.8" fill="#111827"/>
<rect x="1108.9" y="2596.8" width="242.2" height="23.0" rx="4" fill="#ffffff" opacity="0.92"/>
<text x="1230.0" y="2608.8" text-anchor="middle" font-family="Arial, Helvetica, sans-serif" font-size="13" fill="#111827">_valor_jogador(jogador_elenco)</text>
<path d="M1336.6,2685.2 h 34 v 51.0 h -24.0" fill="none" stroke="#111827" stroke-width="1.6"/>
<polygon points="1346.6,2736.2 1355.6,2732.2 1355.6,2740.2" fill="#111827"/>
<rect x="1374.6" y="2686.2" width="174.3" height="57.0" rx="4" fill="#ffffff" opacity="0.92"/>
<text x="1382.6" y="2698.2" text-anchor="start" font-family="Arial, Helvetica, sans-serif" font-size="13" fill="#111827">remover jogador,</text>
<text x="1382.6" y="2715.2" text-anchor="start" font-family="Arial, Helvetica, sans-serif" font-size="13" fill="#111827">creditar patrimonio e</text>
<text x="1382.6" y="2732.2" text-anchor="start" font-family="Arial, Helvetica, sans-serif" font-size="13" fill="#111827">registrar transacao</text>
<line x1="564.5" y1="2791.6" x2="1571.9" y2="2791.6" stroke="#111827" stroke-width="1.6"/>
<polygon points="1571.9,2791.6 1562.9,2787.6 1562.9,2795.6" fill="#111827"/>
<rect x="999.9" y="2774.6" width="136.6" height="23.0" rx="4" fill="#ffffff" opacity="0.92"/>
<text x="1068.2" y="2786.6" text-anchor="middle" font-family="Arial, Helvetica, sans-serif" font-size="13" fill="#111827">refresh_market()</text>
</svg>