<svg xmlns="http://www.w3.org/2000/svg" width="2097" height="2763" viewBox="0 0 2097 2763">
<defs><filter id="shadow" x="-20%" y="-20%" width="140%" height="140%"><feDropShadow dx="0" dy="1" stdDeviation="1" flood-color="#9ca3af" flood-opacity="0.25"/></filter></defs>
<rect x="0" y="0" width="2097" height="2763" fill="#ffffff"/>
<text x="1048.5" y="38" text-anchor="middle" font-family="Arial, Helvetica, sans-serif" font-size="16" font-weight="700" fill="#111827">UC10 - Calcular pontuação</text>
<rect x="110.0" y="92.0" width="120.0" height="48.0" rx="9" ry="9" fill="#f3f4f6" stroke="#374151" stroke-width="1.35" filter="url(#shadow)"/>
<text x="170.0" y="121" text-anchor="middle" font-family="Arial, Helvetica, sans-serif" font-size="13" font-weight="700" fill="#111827">Usuario</text>
<line x1="170.0" y1="150.0" x2="170.0" y2="2741.0" stroke="#cbd5e1" stroke-width="1.1" stroke-dasharray="6,6"/>
<rect x="280.0" y="92.0" width="169.0" height="48.0" rx="9" ry="9" fill="#e0f2fe" stroke="#374151" stroke-width="1.35" filter="url(#shadow)"/>
<text x="364.5" y="121" text-anchor="middle" font-family="Arial, Helvetica, sans-serif" font-size="13" font-weight="700" fill="#111827">LineupScoreScreen</text>
<line x1="364.5" y1="150.0" x2="364.5" y2="2741.0" stroke="#cbd5e1" stroke-width="1.1" stroke-dasharray="6,6"/>
<rect x="479.0" y="92.0" width="161.0" height="48.0" rx="9" ry="9" fill="#e0f2fe" stroke="#374151" stroke-width="1.35" filter="url(#shadow)"/>
<text x="559.5" y="121" text-anchor="middle" font-family="Arial, Helvetica, sans-serif" font-size="13" font-weight="700" fill="#111827">LineupController</text>
<line x1="559.5" y1="150.0" x2="559.5" y2="2741.0" stroke="#cbd5e1" stroke-width="1.1" stroke-dasharray="6,6"/>
<rect x="670.0" y="92.0" width="152.9" height="48.0" rx="9" ry="9" fill="#e0f2fe" stroke="#374151" stroke-width="1.35" filter="url(#shadow)"/>
<text x="746.4" y="121" text-anchor="middle" font-family="Arial, Helvetica, sans-serif" font-size="13" font-weight="700" fill="#111827">RoundController</text>
<line x1="746.4" y1="150.0" x2="746.4" y2="2741.0" stroke="#cbd5e1" stroke-width="1.1" stroke-dasharray="6,6"/>
<rect x="852.9" y="92.0" width="136.8" height="48.0" rx="9" ry="9" fill="#e0f2fe" stroke="#374151" stroke-width="1.35" filter="url(#shadow)"/>
<text x="921.3" y="121" text-anchor="middle" font-family="Arial, Helvetica, sans-serif" font-size="13" font-weight="700" fill="#111827">AppController</text>
<line x1="921.3" y1="150.0" x2="921.3" y2="2741.0" stroke="#cbd5e1" stroke-width="1.1" stroke-dasharray="6,6"/>
<rect x="1022.9" y="92.0" width="128.7" height="48.0" rx="9" ry="9" fill="#e0f2fe" stroke="#374151" stroke-width="1.35" filter="url(#shadow)"/>
<text x="1087.2" y="121" text-anchor="middle" font-family="Arial, Helvetica, sans-serif" font-size="13" font-weight="700" fill="#111827">MatchService</text>
<line x1="1087.2" y1="150.0" x2="1087.2" y2="2741.0" stroke="#cbd5e1" stroke-width="1.1" stroke-dasharray="6,6"/>
<rect x="1192.9" y="92.0" width="152.9" height="48.0" rx="9" ry="9" fill="#e0f2fe" stroke="#374151" stroke-width="1.35" filter="url(#shadow)"/>
<text x="1269.3" y="121" text-anchor="middle" font-family="Arial, Helvetica, sans-serif" font-size="13" font-weight="700" fill="#111827">RoundRepository</text>
<line x1="1269.3" y1="150.0" x2="1269.3" y2="2741.0" stroke="#cbd5e1" stroke-width="1.1" stroke-dasharray="6,6"/>
<rect x="1375.8" y="92.0" width="177.1" height="48.0" rx="9" ry="9" fill="#e0f2fe" stroke="#374151" stroke-width="1.35" filter="url(#shadow)"/>
<text x="1464.3" y="121" text-anchor="middle" font-family="Arial, Helvetica, sans-serif" font-size="13" font-weight="700" fill="#111827">TeamFantasyService</text>
<line x1="1464.3" y1="150.0" x2="1464.3" y2="2741.0" stroke="#cbd5e1" stroke-width="1.1" stroke-dasharray="6,6"/>
<rect x="1582.9" y="92.0" width="169.0" height="48.0" rx="9" ry="9" fill="#e0f2fe" stroke="#374151" stroke-width="1.35" filter="url(#shadow)"/>
<text x="1667.4" y="121" text-anchor="middle" font-family="Arial, Helvetica, sans-serif" font-size="13" font-weight="700" fill="#111827">PontuacaoStrategy</text>
<line x1="1667.4" y1="150.0" x2="1667.4" y2="2741.0" stroke="#cbd5e1" stroke-width="1.1" stroke-dasharray="6,6"/>
<rect x="1781.9" y="92.0" width="225.4" height="48.0" rx="9" ry="9" fill="#e0f2fe" stroke="#374151" stroke-width="1.35" filter="url(#shadow)"/>
<text x="1894.6" y="121" text-anchor="middle" font-family="Arial, Helvetica, sans-serif" font-size="13" font-weight="700" fill="#111827">Callbacks de atualizacao</text>
<line x1="1894.6" y1="150.0" x2="1894.6" y2="2741.0" stroke="#cbd5e1" stroke-width="1.1" stroke-dasharray="6,6"/>
<line x1="170.0" y1="167.4" x2="364.5" y2="167.4" stroke="#111827" stroke-width="1.6"/>
<polygon points="364.5,167.4 355.5,163.4 355.5,171.4" fill="#111827"/>
<rect x="149.9" y="150.4" width="234.7" height="23.0" rx="4" fill="#ffffff" opacity="0.92"/>
<text x="267.3" y="162.4" text-anchor="middle" font-family="Arial, Helvetica, sans-serif" font-size="13" fill="#111827">Clica em &quot;Calcular pontuacao&quot;</text>
<path d="M364.5,238.8 h 34 v 51.0 h -24.0" fill="none" stroke="#111827" stroke-width="1.6"/>
<polygon points="374.5,289.8 383.5,285.8 383.5,293.8" fill="#111827"/>
<rect x="402.5" y="239.8" width="257.3" height="57.0" rx="4" fill="#ffffff" opacity="0.92"/>
<text x="410.5" y="251.8" text-anchor="start" font-family="Arial, Helvetica, sans-serif" font-size="13" fill="#111827">validar</text>
<text x="410.5" y="268.8" text-anchor="start" font-family="Arial, Helvetica, sans-serif" font-size="13" fill="#111827">len(context.jogadores_escalados)</text>
<text x="410.5" y="285.8" text-anchor="start" font-family="Arial, Helvetica, sans-serif" font-size="13" fill="#111827">== 11</text>
<rect x="309.5" y="327.8" width="1640.1" height="2391.0" rx="10" ry="10" fill="none" stroke="#9ca3af" stroke-width="1.35"/>
<text x="327.5" y="346.8" text-anchor="middle" font-family="Arial, Helvetica, sans-serif" font-size="13" font-weight="700" fill="#3730a3">alt</text>
<text x="349.5" y="346.8" text-anchor="start" font-family="Arial, Helvetica, sans-serif" font-size="13" font-weight="700" fill="#111827">Escalacao incompleta</text>
<path d="M364.5,413.8 h 34 v 68.0 h -24.0" fill="none" stroke="#111827" stroke-width="1.6"/>
<polygon points="374.5,481.8 383.5,477.8 383.5,485.8" fill="#111827"/>
<rect x="402.5" y="414.8" width="197.0" height="74.0" rx="4" fill="#ffffff" opacity="0.92"/>
<text x="410.5" y="426.8" text-anchor="start" font-family="Arial, Helvetica, sans-serif" font-size="13" fill="#111827">show_error(&quot;Voce precisa</text>
<text x="410.5" y="443.8" text-anchor="start" font-family="Arial, Helvetica, sans-serif" font-size="13" fill="#111827">comprar exatamente 11</text>
<text x="410.5" y="460.8" text-anchor="start" font-family="Arial, Helvetica, sans-serif" font-size="13" fill="#111827">jogadores para a</text>
<text x="410.5" y="477.8" text-anchor="start" font-family="Arial, Helvetica, sans-serif" font-size="13" fill="#111827">rodada.&quot;)</text>
<line x1="309.5" y1="517.8" x2="1949.6" y2="517.8" stroke="#d1d5db" stroke-width="1.2" stroke-dasharray="5,4"/>
<text x="327.5" y="535.8" text-anchor="middle" font-family="Arial, Helvetica, sans-serif" font-size="13" font-weight="700" fill="#c2410c">else</text>
<text x="349.5" y="535.8" text-anchor="start" font-family="Arial, Helvetica, sans-serif" font-size="13" font-weight="700" fill="#111827">Escalacao completa</text>
<path d="M364.5,565.4 h 34 v 34.0 h -24.0" fill="none" stroke="#111827" stroke-width="1.6"/>
<polygon points="374.5,599.4 383.5,595.4 383.5,603.4" fill="#111827"/>
<rect x="402.5" y="566.4" width="189.4" height="40.0" rx="4" fill="#ffffff" opacity="0.92"/>
<text x="410.5" y="578.4" text-anchor="start" font-family="Arial, Helvetica, sans-serif" font-size="13" fill="#111827">validar context.capitao</text>
<text x="410.5" y="595.4" text-anchor="start" font-family="Arial, Helvetica, sans-serif" font-size="13" fill="#111827">definido</text>
<rect x="309.5" y="637.4" width="1640.1" height="2097.0" rx="10" ry="10" fill="none" stroke="#9ca3af" stroke-width="1.35"/>
<text x="327.5" y="656.4" text-anchor="middle" font-family="Arial, Helvetica, sans-serif" font-size="13" font-weight="700" fill="#3730a3">alt</text>
<text x="349.5" y="656.4" text-anchor="start" font-family="Arial, Helvetica, sans-serif" font-size="13" font-weight="700" fill="#111827">Capitao ausente</text>
<path d="M364.5,713.2 h 34 v 51.0 h -24.0" fill="none" stroke="#111827" stroke-width="1.6"/>
<polygon points="374.5,764.2 383.5,760.2 383.5,768.2" fill="#111827"/>
<rect x="402.5" y="714.2" width="189.4" height="57.0" rx="4" fill="#ffffff" opacity="0.92"/>
<text x="410.5" y="726.2" text-anchor="start" font-family="Arial, Helvetica, sans-serif" font-size="13" fill="#111827">show_error(&quot;Escolha um</text>
<text x="410.5" y="743.2" text-anchor="start" font-family="Arial, Helvetica, sans-serif" font-size="13" fill="#111827">capitao antes de</text>
<text x="410.5" y="760.2" text-anchor="start" font-family="Arial, Helvetica, sans-serif" font-size="13" fill="#111827">calcular a pontuacao.&quot;)</text>
<line x1="309.5" y1="800.2" x2="1949.6" y2="800.2" stroke="#d1d5db" stroke-width="1.2" stroke-dasharray="5,4"/>
<text x="327.5" y="818.2" text-anchor="middle" font-family="Arial, Helvetica, sans-serif" font-size="13" font-weight="700" fill="#c2410c">else</text>
<text x="349.5" y="818.2" text-anchor="start" font-family="Arial, Helvetica, sans-serif" font-size="13" font-weight="700" fill="#111827">Capitao definido</text>
<path d="M364.5,837.6 h 34 v 17.0 h -24.0" fill="none" stroke="#111827" stroke-width="1.6"/>
<polygon points="374.5,854.6 383.5,850.6 383.5,858.6" fill="#111827"/>
<rect x="402.5" y="838.6" width="174.3" height="23.0" rx="4" fill="#ffffff" opacity="0.92"/>
<text x="410.5" y="850.6" text-anchor="start" font-family="Arial, Helvetica, sans-serif" font-size="13" fill="#111827">rodada = get_rodada()</text>
<line x1="364.5" y1="920.2" x2="559.5" y2="920.2" stroke="#111827" stroke-width="1.6"/>
<polygon points="559.5,920.2 550.5,916.2 550.5,924.2" fill="#111827"/>
<rect x="288.1" y="895.2" width="347.8" height="40.0" rx="4" fill="#ffffff" opacity="0.92"/>
<text x="462.0" y="907.2" text-anchor="middle" font-family="Arial, Helvetica, sans-serif" font-size="13" fill="#111827">criar_escalacao_fantasy(jogadores_escalados,</text>
<text x="462.0" y="924.2" text-anchor="middle" font-family="Arial, Helvetica, sans-serif" font-size="13" fill="#111827">capitao)</text>
<line x1="364.5" y1="988.2" x2="746.4" y2="988.2" stroke="#111827" stroke-width="1.6"/>
<polygon points="746.4,988.2 737.4,984.2 737.4,992.2" fill="#111827"/>
<rect x="419.3" y="963.2" width="272.4" height="40.0" rx="4" fill="#ffffff" opacity="0.92"/>
<text x="555.5" y="975.2" text-anchor="middle" font-family="Arial, Helvetica, sans-serif" font-size="13" fill="#111827">montar_rodada_por_cache(temporada,</text>
<text x="555.5" y="992.2" text-anchor="middle" font-family="Arial, Helvetica, sans-serif" font-size="13" fill="#111827">rodada, jogadores_escalados)</text>
<line x1="746.4" y1="1046.0" x2="921.3" y2="1046.0" stroke="#111827" stroke-width="1.6"/>
<polygon points="921.3,1046.0 912.3,1042.0 912.3,1050.0" fill="#111827"/>
<rect x="644.9" y="1029.0" width="377.9" height="23.0" rx="4" fill="#ffffff" opacity="0.92"/>
<text x="833.9" y="1041.0" text-anchor="middle" font-family="Arial, Helvetica, sans-serif" font-size="13" fill="#111827">montar_rodada_por_cache_rodada_api_football(...)</text>
<line x1="921.3" y1="1097.0" x2="1087.2" y2="1097.0" stroke="#111827" stroke-width="1.6"/>
<polygon points="1087.2,1097.0 1078.2,1093.0 1078.2,1101.0" fill="#111827"/>
<rect x="815.3" y="1080.0" width="377.9" height="23.0" rx="4" fill="#ffffff" opacity="0.92"/>
<text x="1004.3" y="1092.0" text-anchor="middle" font-family="Arial, Helvetica, sans-serif" font-size="13" fill="#111827">montar_rodada_por_cache_rodada_api_football(...)</text>
<path d="M1087.2,1158.2 h 34 v 34.0 h -24.0" fill="none" stroke="#111827" stroke-width="1.6"/>
<polygon points="1097.2,1192.2 1106.2,1188.2 1106.2,1196.2" fill="#111827"/>
<rect x="1125.2" y="1159.2" width="317.6" height="40.0" rx="4" fill="#ffffff" opacity="0.92"/>
<text x="1133.2" y="1171.2" text-anchor="start" font-family="Arial, Helvetica, sans-serif" font-size="13" fill="#111827">carregar_dados_rodada_api_football(liga,</text>
<text x="1133.2" y="1188.2" text-anchor="start" font-family="Arial, Helvetica, sans-serif" font-size="13" fill="#111827">temporada, rodada)</text>
<path d="M1087.2,1268.0 h 34 v 51.0 h -24.0" fill="none" stroke="#111827" stroke-width="1.6"/>
<polygon points="1097.2,1319.0 1106.2,1315.0 1106.2,1323.0" fill="#111827"/>
<rect x="1125.2" y="1269.0" width="181.9" height="57.0" rx="4" fill="#ffffff" opacity="0.92"/>
<text x="1133.2" y="1281.0" text-anchor="start" font-family="Arial, Helvetica, sans-serif" font-size="13" fill="#111827">cruzar jogadores</text>
<text x="1133.2" y="1298.0" text-anchor="start" font-family="Arial, Helvetica, sans-serif" font-size="13" fill="#111827">escalados com atuacoes</text>
<text x="1133.2" y="1315.0" text-anchor="start" font-family="Arial, Helvetica, sans-serif" font-size="13" fill="#111827">do cache</text>
<rect x="1032.2" y="1357.0" width="110.0" height="318.0" rx="10" ry="10" fill="none" stroke="#9ca3af" stroke-width="1.35"/>
<text x="1050.2" y="1376.0" text-anchor="middle" font-family="Arial, Helvetica, sans-serif" font-size="13" font-weight="700" fill="#3730a3">loop</text>
<text x="1072.2" y="1376.0" text-anchor="start" font-family="Arial, Helvetica, sans-serif" font-size="13" font-weight="700" fill="#111827">Para cada jogador escalado</text>
<rect x="1032.2" y="1395.0" width="110.0" height="244.0" rx="10" ry="10" fill="none" stroke="#9ca3af" stroke-width="1.35"/>
<text x="1050.2" y="1414.0" text-anchor="middle" font-family="Arial, Helvetica, sans-serif" font-size="13" font-weight="700" fill="#3730a3">alt</text>
<text x="1072.2" y="1414.0" text-anchor="start" font-family="Arial, Helvetica, sans-serif" font-size="13" font-weight="700" fill="#111827">Atuacao encontrada no cache</text>
<path d="M1087.2,1460.6 h 34 v 34.0 h -24.0" fill="none" stroke="#111827" stroke-width="1.6"/>
<polygon points="1097.2,1494.6 1106.2,1490.6 1106.2,1498.6" fill="#111827"/>
<rect x="1125.2" y="1461.6" width="166.8" height="40.0" rx="4" fill="#ffffff" opacity="0.92"/>
<text x="1133.2" y="1473.6" text-anchor="start" font-family="Arial, Helvetica, sans-serif" font-size="13" fill="#111827">converter atuacao em</text>
<text x="1133.2" y="1490.6" text-anchor="start" font-family="Arial, Helvetica, sans-serif" font-size="13" fill="#111827">MatchPlayerStats</text>
<line x1="1032.2" y1="1530.6" x2="1142.2" y2="1530.6" stroke="#d1d5db" stroke-width="1.2" stroke-dasharray="5,4"/>
<text x="1050.2" y="1548.6" text-anchor="middle" font-family="Arial, Helvetica, sans-serif" font-size="13" font-weight="700" fill="#c2410c">else</text>
<text x="1072.2" y="1548.6" text-anchor="start" font-family="Arial, Helvetica, sans-serif" font-size="13" font-weight="700" fill="#111827">Atuacao nao encontrada</text>
<path d="M1087.2,1578.2 h 34 v 34.0 h -24.0" fill="none" stroke="#111827" stroke-width="1.6"/>
<polygon points="1097.2,1612.2 1106.2,1608.2 1106.2,1616.2" fill="#111827"/>
<rect x="1125.2" y="1579.2" width="151.7" height="40.0" rx="4" fill="#ffffff" opacity="0.92"/>
<text x="1133.2" y="1591.2" text-anchor="start" font-family="Arial, Helvetica, sans-serif" font-size="13" fill="#111827">ignorar jogador na</text>
<text x="1133.2" y="1608.2" text-anchor="start" font-family="Arial, Helvetica, sans-serif" font-size="13" fill="#111827">partida</text>
<line x1="364.5" y1="1708.4" x2="746.4" y2="1708.4" stroke="#111827" stroke-width="1.6"/>
<polygon points="746.4,1708.4 737.4,1704.4 737.4,1712.4" fill="#111827"/>
<rect x="434.4" y="1691.4" width="242.2" height="23.0" rx="4" fill="#ffffff" opacity="0.92"/>
<text x="555.5" y="1703.4" text-anchor="middle" font-family="Arial, Helvetica, sans-serif" font-size="13" fill="#111827">adicionar_rodada(rodada_model)</text>
<line x1="746.4" y1="1759.4" x2="921.3" y2="1759.4" stroke="#111827" stroke-width="1.6"/>
<polygon points="921.3,1759.4 912.3,1755.4 912.3,1763.4" fill="#111827"/>
<rect x="712.8" y="1742.4" width="242.2" height="23.0" rx="4" fill="#ffffff" opacity="0.92"/>
<text x="833.9" y="1754.4" text-anchor="middle" font-family="Arial, Helvetica, sans-serif" font-size="13" fill="#111827">adicionar_rodada(rodada_model)</text>
<line x1="921.3" y1="1810.4" x2="1269.3" y2="1810.4" stroke="#111827" stroke-width="1.6"/>
<polygon points="1269.3,1810.4 1260.3,1806.4 1260.3,1814.4" fill="#111827"/>
<rect x="974.2" y="1793.4" width="242.2" height="23.0" rx="4" fill="#ffffff" opacity="0.92"/>
<text x="1095.3" y="1805.4" text-anchor="middle" font-family="Arial, Helvetica, sans-serif" font-size="13" fill="#111827">adicionar_rodada(rodada_model)</text>
<line x1="364.5" y1="1871.6" x2="559.5" y2="1871.6" stroke="#111827" stroke-width="1.6"/>
<polygon points="559.5,1871.6 550.5,1867.6 550.5,1875.6" fill="#111827"/>
<rect x="356.0" y="1846.6" width="212.0" height="40.0" rx="4" fill="#ffffff" opacity="0.92"/>
<text x="462.0" y="1858.6" text-anchor="middle" font-family="Arial, Helvetica, sans-serif" font-size="13" fill="#111827">executar_rodada(username,</text>
<text x="462.0" y="1875.6" text-anchor="middle" font-family="Arial, Helvetica, sans-serif" font-size="13" fill="#111827">rodada, jogadores_fantasy)</text>
<line x1="559.5" y1="1939.6" x2="921.3" y2="1939.6" stroke="#111827" stroke-width="1.6"/>
<polygon points="921.3,1939.6 912.3,1935.6 912.3,1943.6" fill="#111827"/>
<rect x="634.4" y="1914.6" width="212.0" height="40.0" rx="4" fill="#ffffff" opacity="0.92"/>
<text x="740.4" y="1926.6" text-anchor="middle" font-family="Arial, Helvetica, sans-serif" font-size="13" fill="#111827">executar_rodada(username,</text>
<text x="740.4" y="1943.6" text-anchor="middle" font-family="Arial, Helvetica, sans-serif" font-size="13" fill="#111827">rodada, jogadores_fantasy)</text>
<path d="M921.3,1997.4 h 34 v 17.0 h -24.0" fill="none" stroke="#111827" stroke-width="1.6"/>
<polygon points="931.3,2014.4 940.3,2010.4 940.3,2018.4" fill="#111827"/>
<rect x="959.3" y="1998.4" width="287.4" height="23.0" rx="4" fill="#ffffff" opacity="0.92"/>
<text x="967.3" y="2010.4" text-anchor="start" font-family="Arial, Helvetica, sans-serif" font-size="13" fill="#111827">_buscar_usuario_autorizado(username)</text>
<line x1="921.3" y1="2080.0" x2="1464.3" y2="2080.0" stroke="#111827" stroke-width="1.6"/>
<polygon points="1464.3,2080.0 1455.3,2076.0 1455.3,2084.0" fill="#111827"/>
<rect x="1064.2" y="2055.0" width="257.3" height="40.0" rx="4" fill="#ffffff" opacity="0.92"/>
<text x="1192.8" y="2067.0" text-anchor="middle" font-family="Arial, Helvetica, sans-serif" font-size="13" fill="#111827">executar_rodada(user, rodada,</text>
<text x="1192.8" y="2084.0" text-anchor="middle" font-family="Arial, Helvetica, sans-serif" font-size="13" fill="#111827">jogadores_fantasy, rodadas_repo)</text>
<path d="M1464.3,2148.0 h 34 v 34.0 h -24.0" fill="none" stroke="#111827" stroke-width="1.6"/>
<polygon points="1474.3,2182.0 1483.3,2178.0 1483.3,2186.0" fill="#111827"/>
<rect x="1502.3" y="2149.0" width="159.3" height="40.0" rx="4" fill="#ffffff" opacity="0.92"/>
<text x="1510.3" y="2161.0" text-anchor="start" font-family="Arial, Helvetica, sans-serif" font-size="13" fill="#111827">localizar pontuacao</text>
<text x="1510.3" y="2178.0" text-anchor="start" font-family="Arial, Helvetica, sans-serif" font-size="13" fill="#111827">anterior da rodada</text>
<path d="M1464.3,2257.8 h 34 v 51.0 h -24.0" fill="none" stroke="#111827" stroke-width="1.6"/>
<polygon points="1474.3,2308.8 1483.3,2304.8 1483.3,2312.8" fill="#111827"/>
<rect x="1502.3" y="2258.8" width="181.9" height="57.0" rx="4" fill="#ffffff" opacity="0.92"/>
<text x="1510.3" y="2270.8" text-anchor="start" font-family="Arial, Helvetica, sans-serif" font-size="13" fill="#111827">montar_escalacao(user,</text>
<text x="1510.3" y="2287.8" text-anchor="start" font-family="Arial, Helvetica, sans-serif" font-size="13" fill="#111827">rodada,</text>
<text x="1510.3" y="2304.8" text-anchor="start" font-family="Arial, Helvetica, sans-serif" font-size="13" fill="#111827">jogadores_fantasy)</text>
<line x1="1464.3" y1="2364.2" x2="1269.3" y2="2364.2" stroke="#111827" stroke-width="1.6"/>
<polygon points="1269.3,2364.2 1278.3,2360.2 1278.3,2368.2" fill="#111827"/>
<rect x="1264.6" y="2347.2" width="204.5" height="23.0" rx="4" fill="#ffffff" opacity="0.92"/>
<text x="1366.8" y="2359.2" text-anchor="middle" font-family="Arial, Helvetica, sans-serif" font-size="13" fill="#111827">buscar_por_numero(rodada)</text>
<rect x="1409.3" y="2397.8" width="313.0" height="126.0" rx="10" ry="10" fill="none" stroke="#9ca3af" stroke-width="1.35"/>
<text x="1427.3" y="2416.8" text-anchor="middle" font-family="Arial, Helvetica, sans-serif" font-size="13" font-weight="700" fill="#3730a3">loop</text>
<text x="1449.3" y="2416.8" text-anchor="start" font-family="Arial, Helvetica, sans-serif" font-size="13" font-weight="700" fill="#111827">Para cada jogador com atuacao na rodada</text>
<line x1="1464.3" y1="2463.4" x2="1667.4" y2="2463.4" stroke="#111827" stroke-width="1.6"/>
<polygon points="1667.4,2463.4 1658.4,2459.4 1658.4,2467.4" fill="#111827"/>
<rect x="1459.8" y="2438.4" width="212.0" height="40.0" rx="4" fill="#ffffff" opacity="0.92"/>
<text x="1565.8" y="2450.4" text-anchor="middle" font-family="Arial, Helvetica, sans-serif" font-size="13" fill="#111827">calcular(MatchPlayerStats,</text>
<text x="1565.8" y="2467.4" text-anchor="middle" font-family="Arial, Helvetica, sans-serif" font-size="13" fill="#111827">capitao)</text>
<path d="M1464.3,2567.4 h 34 v 34.0 h -24.0" fill="none" stroke="#111827" stroke-width="1.6"/>
<polygon points="1474.3,2601.4 1483.3,2597.4 1483.3,2605.4" fill="#111827"/>
<rect x="1502.3" y="2568.4" width="181.9" height="40.0" rx="4" fill="#ffffff" opacity="0.92"/>
<text x="1510.3" y="2580.4" text-anchor="start" font-family="Arial, Helvetica, sans-serif" font-size="13" fill="#111827">atualizar pontuacao da</text>
<text x="1510.3" y="2597.4" text-anchor="start" font-family="Arial, Helvetica, sans-serif" font-size="13" fill="#111827">escalacao</text>
<path d="M1464.3,2667.0 h 34 v 34.0 h -24.0" fill="none" stroke="#111827" stroke-width="1.6"/>
<polygon points="1474.3,2701.0 1483.3,2697.0 1483.3,2705.0" fill="#111827"/>
<rect x="1502.3" y="2668.0" width="166.8" height="40.0" rx="4" fill="#ffffff" opacity="0.92"/>
<text x="1510.3" y="2680.0" text-anchor="start" font-family="Arial, Helvetica, sans-serif" font-size="13" fill="#111827">atualizar pontuacao</text>
<text x="1510.3" y="2697.0" text-anchor="start" font-family="Arial, Helvetica, sans-serif" font-size="13" fill="#111827">acumulada do usuario</text>
<line x1="364.5" y1="2756.4" x2="559.5" y2="2756.4" stroke="#111827" stroke-width="1.6"/>
<polygon points="559.5,2756.4 550.5,2752.4 550.5,2760.4" fill="#111827"/>
<rect x="363.5" y="2739.4" width="197.0" height="23.0" rx="4" fill="#ffffff" opacity="0.92"/>
<text x="462.0" y="2751.4" text-anchor="middle" font-family="Arial, Helvetica, sans-serif" font-size="13" fill="#111827">buscar_escalacao(rodada)</text>
<path d="M364.5,2827.8 h 34 v 51.0 h -24.0" fill="none" stroke="#111827" stroke-width="1.6"/>
<polygon points="374.5,2878.8 383.5,2874.8 383.5,2882.8" fill="#111827"/>
<rect x="402.5" y="2828.8" width="144.2" height="57.0" rx="4" fill="#ffffff" opacity="0.92"/>
<text x="410.5" y="2840.8" text-anchor="start" font-family="Arial, Helvetica, sans-serif" font-size="13" fill="#111827">montar texto com</text>
<text x="410.5" y="2857.8" text-anchor="start" font-family="Arial, Helvetica, sans-serif" font-size="13" fill="#111827">pontuacao total e</text>
<text x="410.5" y="2874.8" text-anchor="start" font-family="Arial, Helvetica, sans-serif" font-size="13" fill="#111827">individual</text>
<line x1="364.5" y1="2934.2" x2="1894.6" y2="2934.2" stroke="#111827" stroke-width="1.6"/>
<polygon points="1894.6,2934.2 1885.6,2930.2 1885.6,2938.2" fill="#111827"/>
<rect x="1057.5" y="2917.2" width="144.2" height="23.0" rx="4" fill="#ffffff" opacity="0.92"/>
<text x="1129.6" y="2929.2" text-anchor="middle" font-family="Arial, Helvetica, sans-serif" font-size="13" fill="#111827">refresh_ranking()</text>
<line x1="364.5" y1="2985.2" x2="1894.6" y2="2985.2" stroke="#111827" stroke-width="1.6"/>
<polygon points="1894.6,2985.2 1885.6,2981.2 1885.6,2989.2" fill="#111827"/>
<rect x="1049.9" y="2968.2" width="159.3" height="23.0" rx="4" fill="#ffffff" opacity="0.92"/>
<text x="1129.6" y="2980.2" text-anchor="middle" font-family="Arial, Helvetica, sans-serif" font-size="13" fill="#111827">refresh_evolution()</text>
</svg>